PathFileType  4	(X/Y/Z) C:\Users\wagnerel85475\Documents\Thesis\opencap-core\Data\3375ffbc-daeb-4a43-b4f7-ac9899cd4c71\MarkerData\PreAugmentation
DataRate	CameraRate	NumFrames	NumMarkers	Units	OrigDataRate	OrigDataStartFrame	OrigNumFrames
60.0	60.0	18	20	m	60.0	202	403
Frame#	Time	Neck			RShoulder			RElbow			RWrist			LShoulder			LElbow			LWrist			midHip			RHip			RKnee			RAnkle			LHip			LKnee			LAnkle			LBigToe			LSmallToe			LHeel			RBigToe			RSmallToe			RHeel			
		X1	Y1	Z1	X2	Y2	Z2	X3	Y3	Z3	X4	Y4	Z4	X5	Y5	Z5	X6	Y6	Z6	X7	Y7	Z7	X8	Y8	Z8	X9	Y9	Z9	X10	Y10	Z10	X11	Y11	Z11	X12	Y12	Z12	X13	Y13	Z13	X14	Y14	Z14	X15	Y15	Z15	X16	Y16	Z16	X17	Y17	Z17	X18	Y18	Z18	X19	Y19	Z19	X20	Y20	Z20	

202	3.3500000	1.2133200	0.6555100	-0.0799100	1.2186400	0.6699700	0.0893000	1.4192800	0.4737300	0.2201400	1.7117800	0.3796100	0.1961200	1.2186800	0.6489400	-0.2487400	1.4394500	0.4144200	-0.3442500	1.7116200	0.2953300	-0.3455600	0.7202100	0.3273900	-0.0495700	0.7469800	0.3329300	0.0717800	1.1931900	0.2533200	0.1075900	0.9525100	-0.1934600	0.1144800	0.7354100	0.3353900	-0.1700700	1.1518800	0.2482200	-0.2799000	0.8915400	-0.1886100	-0.2819000	1.0952600	-0.2211100	-0.3649300	1.0361700	-0.2337000	-0.3956900	0.8297300	-0.2377500	-0.2534700	1.1018300	-0.2308000	0.2038300	1.0511800	-0.2242500	0.2273200	0.9071500	-0.2471800	0.0924800
203	3.3666667	1.2213300	0.6797600	-0.0776100	1.2423100	0.6864000	0.0917000	1.4135600	0.5060600	0.2176700	1.7074100	0.4045600	0.1978000	1.2210400	0.6735900	-0.2477300	1.4190700	0.4416300	-0.3537400	1.7054800	0.3199700	-0.3566300	0.7272200	0.3434200	-0.0541000	0.7490700	0.3490700	0.0708700	1.2055900	0.2640300	0.0999600	0.9618400	-0.1901600	0.1172100	0.7495900	0.3522300	-0.1782800	1.1512800	0.2490100	-0.2798000	0.8911500	-0.1916400	-0.2814900	1.0959700	-0.2209000	-0.3649000	1.0365800	-0.2297100	-0.3950300	0.8303900	-0.2387200	-0.2525600	1.1175600	-0.2244700	0.2087900	1.0595200	-0.2210200	0.2295600	0.9078500	-0.2466600	0.0921300
204	3.3833333	1.2205500	0.7086100	-0.0764100	1.2335300	0.7148000	0.0962000	1.4212300	0.5262400	0.2270900	1.6989800	0.4386300	0.2123300	1.2253500	0.7001700	-0.2451200	1.4243100	0.4542200	-0.3564300	1.7008700	0.3280300	-0.3583600	0.7451800	0.3797000	-0.0636800	0.7763200	0.3832200	0.0731300	1.1916500	0.2594500	0.1004300	0.9435000	-0.1966800	0.1116100	0.7583900	0.3907300	-0.1913300	1.1447800	0.2461700	-0.2764600	0.8913200	-0.1883200	-0.2819300	1.0954800	-0.2179200	-0.3642700	1.0360900	-0.2273300	-0.3958200	0.8300100	-0.2387900	-0.2521400	1.1103800	-0.2238900	0.2072800	1.0514500	-0.2244800	0.2273600	0.8995600	-0.2418300	0.0906900
205	3.4000000	1.2146200	0.7274700	-0.0738300	1.2346700	0.7410700	0.0965600	1.4173400	0.5662100	0.2319000	1.6918300	0.4598300	0.2261500	1.2187800	0.7153000	-0.2415200	1.4181000	0.4871000	-0.3603000	1.6787800	0.3401900	-0.3792700	0.7535000	0.4003900	-0.0591500	0.7834700	0.4022700	0.0776600	1.1898400	0.2630700	0.0934600	0.9371900	-0.2022400	0.1160900	0.7732500	0.4066500	-0.1914800	1.1511200	0.2491000	-0.2796900	0.8913000	-0.1877900	-0.2821500	1.0957600	-0.2146800	-0.3649500	1.0362900	-0.2266500	-0.3957100	0.8305300	-0.2385200	-0.2524900	1.1088500	-0.2244400	0.2069200	1.0524500	-0.2297700	0.2351200	0.8932800	-0.2519100	0.0943800
206	3.4166667	1.2207000	0.7575900	-0.0694700	1.2337300	0.7728700	0.0964000	1.4060300	0.5889300	0.2470800	1.6989200	0.4896200	0.2355600	1.2317000	0.7526100	-0.2415700	1.4113100	0.5005300	-0.3636500	1.6742000	0.3644700	-0.3881600	0.7364700	0.4113000	-0.0511400	0.7567000	0.4164600	0.0748400	1.1899400	0.2647700	0.0927300	0.9183300	-0.2058300	0.1097700	0.7667600	0.4216000	-0.1796200	1.1442100	0.2496500	-0.2760800	0.8912400	-0.1879000	-0.2819000	1.0950100	-0.2149200	-0.3650900	1.0281100	-0.2273100	-0.3933700	0.8304500	-0.2385600	-0.2520000	1.1017900	-0.2273600	0.2047300	1.0442500	-0.2303400	0.2322300	0.8921300	-0.2479600	0.0881500
207	3.4333333	1.2136800	0.7864600	-0.0736200	1.2333900	0.8005700	0.0972900	1.3908100	0.6200000	0.2589500	1.7032900	0.5168600	0.2486100	1.2313800	0.7703900	-0.2416400	1.3981900	0.5351900	-0.3641100	1.6677800	0.3759000	-0.3928900	0.7427100	0.4456600	-0.0631300	0.7548200	0.4465400	0.0670300	1.1910700	0.2781500	0.0992200	0.9192900	-0.2082400	0.1100800	0.7462400	0.4495200	-0.1870800	1.1437200	0.2532200	-0.2765000	0.8913600	-0.1878000	-0.2821600	1.0957100	-0.2147600	-0.3650400	1.0362500	-0.2265900	-0.3957700	0.8302100	-0.2346500	-0.2531500	1.0938100	-0.2266000	0.2091200	1.0370400	-0.2330600	0.2360400	0.8929900	-0.2472900	0.0876700
208	3.4500000	1.2200600	0.8141700	-0.0691900	1.2330200	0.8316300	0.0967200	1.3909400	0.6629700	0.2664000	1.6902200	0.5409800	0.2657800	1.2237300	0.8105300	-0.2382100	1.3713100	0.5628300	-0.3843000	1.6360800	0.3976000	-0.4123600	0.7611700	0.4610800	-0.0719900	0.7770700	0.4623700	0.0549900	1.1852700	0.2808600	0.1019300	0.9184600	-0.2083900	0.1104000	0.7818500	0.4673500	-0.1886700	1.1512300	0.2573100	-0.2804900	0.8912000	-0.1884100	-0.2819800	1.0950200	-0.2148200	-0.3649700	1.0283600	-0.2269300	-0.3920100	0.8299500	-0.2388500	-0.2521500	1.0866200	-0.2296900	0.2070100	1.0372100	-0.2332800	0.2364600	0.9018200	-0.2399800	0.0916100
209	3.4666667	1.2200000	0.8566300	-0.0695000	1.2315900	0.8633000	0.0985000	1.3455400	0.6858500	0.2919700	1.6768400	0.5695700	0.2770300	1.2306300	0.8504000	-0.2415900	1.3638600	0.6035500	-0.3879000	1.6192700	0.4083900	-0.4186400	0.7978700	0.4795100	-0.0719500	0.8042100	0.4770800	0.0504200	1.1785700	0.2801400	0.1063900	0.9196400	-0.2084300	0.1101900	0.8091200	0.4792700	-0.1916800	1.1436600	0.2562400	-0.2839900	0.8907300	-0.1843000	-0.2815100	1.0955300	-0.2147700	-0.3649600	1.0283200	-0.2266800	-0.3932000	0.8301700	-0.2318200	-0.2524800	1.0854400	-0.2298900	0.2065100	1.0284500	-0.2392600	0.2341200	0.9023900	-0.2389000	0.0911400
210	3.4833333	1.2254400	0.8827500	-0.0734100	1.2315700	0.8951100	0.0973700	1.3375700	0.7134200	0.2971700	1.6499800	0.5907200	0.2856300	1.2361500	0.8719200	-0.2454700	1.3569500	0.6138900	-0.3921000	1.5854800	0.4341000	-0.4317400	0.8104100	0.5016600	-0.0681400	0.8241900	0.5002500	0.0584200	1.1642200	0.2748900	0.1071100	0.9276800	-0.2015200	0.1139700	0.8036100	0.5017700	-0.1881500	1.1383200	0.2626900	-0.2823600	0.8903200	-0.1815000	-0.2807200	1.0947200	-0.2148100	-0.3650100	1.0279100	-0.2205700	-0.3921200	0.8299100	-0.2318900	-0.2522000	1.0866500	-0.2334600	0.2062700	1.0287400	-0.2393200	0.2345400	0.9017100	-0.2393300	0.0916700
211	3.5000000	1.2255400	0.9240500	-0.0731700	1.2392500	0.9383000	0.1012500	1.3104500	0.7473700	0.3180300	1.6047700	0.6116300	0.3121500	1.2292200	0.9222800	-0.2491900	1.3308300	0.6478600	-0.3999300	1.5558400	0.4546500	-0.4447800	0.8147500	0.5298300	-0.0651900	0.8316300	0.5291700	0.0603000	1.1572500	0.2748000	0.1117000	0.9215300	-0.2067800	0.1185500	0.8085900	0.5290300	-0.1920600	1.1371300	0.2637600	-0.2823100	0.8905500	-0.1776000	-0.2801400	1.0955700	-0.2146400	-0.3650100	1.0282100	-0.2232200	-0.3926200	0.8308400	-0.2354900	-0.2516600	1.0850400	-0.2302100	0.2066900	1.0280100	-0.2395600	0.2343300	0.9035600	-0.2409700	0.0917000
212	3.5166667	1.2110300	0.9679300	-0.0723400	1.2296300	0.9780100	0.0984400	1.3043500	0.7835100	0.3290500	1.5659800	0.6399300	0.3281700	1.2278100	0.9591600	-0.2566000	1.2963400	0.6853600	-0.4125500	1.5215900	0.4740100	-0.4583300	0.8331400	0.5579700	-0.0591200	0.8408100	0.5526400	0.0638900	1.1648600	0.2794500	0.1147000	0.9209400	-0.2071000	0.1189200	0.8244300	0.5560200	-0.1859100	1.1375500	0.2703800	-0.2822600	0.8903000	-0.1747800	-0.2793600	1.0946300	-0.2149500	-0.3650700	1.0277300	-0.2240800	-0.3927900	0.8307400	-0.2355000	-0.2513200	1.0863100	-0.2298200	0.2070800	1.0284000	-0.2393800	0.2346400	0.9041800	-0.2368300	0.0927100
213	3.5333333	1.2102900	1.0101800	-0.0728800	1.2236200	1.0166000	0.1029500	1.2749200	0.8209500	0.3427900	1.5294800	0.6595500	0.3488600	1.2277100	0.9987600	-0.2567300	1.2686300	0.7141100	-0.4135800	1.4778200	0.4983900	-0.4523300	0.8492600	0.5860000	-0.0590800	0.8578000	0.5906300	0.0621500	1.1713800	0.2890500	0.1111600	0.9218300	-0.2003000	0.1186300	0.8507100	0.5854300	-0.1736700	1.1369000	0.2711500	-0.2821000	0.8907800	-0.1707100	-0.2788200	1.0887800	-0.2173000	-0.3684100	1.0282000	-0.2232100	-0.3926300	0.8312800	-0.2325600	-0.2509200	1.0933700	-0.2306900	0.2085700	1.0364800	-0.2361700	0.2368800	0.9033200	-0.2338500	0.0916700
214	3.5500000	1.2087000	1.0458400	-0.0728200	1.2231500	1.0551300	0.1021900	1.2462300	0.8663900	0.3538800	1.5112500	0.6887700	0.3550900	1.2117000	1.0318700	-0.2571800	1.2328700	0.7514900	-0.4114000	1.4228900	0.5389000	-0.4706700	0.8509700	0.6069800	-0.0527700	0.8619000	0.6161300	0.0678900	1.1630700	0.2895900	0.1082400	0.9280100	-0.2016000	0.1140300	0.8680100	0.6039200	-0.1669300	1.1360100	0.2899200	-0.2801900	0.8902100	-0.1748600	-0.2794000	1.0877700	-0.2176700	-0.3685300	1.0278200	-0.2241900	-0.3928400	0.8306600	-0.2355800	-0.2513600	1.0866600	-0.2334700	0.2061900	1.0286900	-0.2392200	0.2345600	0.9030500	-0.2346800	0.0921800
215	3.5666667	1.2083300	1.0878900	-0.0728000	1.2165100	1.1011500	0.1071700	1.2194100	0.9126400	0.3571100	1.4587900	0.7241800	0.3713700	1.2042000	1.0788000	-0.2537100	1.1983700	0.7964800	-0.4302100	1.3882000	0.5681400	-0.4622400	0.8488200	0.6357700	-0.0516700	0.8588800	0.6368100	0.0692700	1.1482000	0.2931200	0.1098700	0.9288100	-0.1946700	0.1138000	0.8411500	0.6343400	-0.1698100	1.1279500	0.2985200	-0.2761700	0.8908800	-0.1705200	-0.2788400	1.0815800	-0.2234000	-0.3645400	1.0361700	-0.2233000	-0.3952900	0.8313900	-0.2324000	-0.2509200	1.0854300	-0.2376300	0.2050400	1.0282200	-0.2394500	0.2342100	0.9033200	-0.2335400	0.0916000
216	3.5833333	1.1937200	1.1325700	-0.0720700	1.2025500	1.1436800	0.1146500	1.1828200	0.9642600	0.3474400	1.4104500	0.7676800	0.3694000	1.2017900	1.1307500	-0.2541100	1.1815500	0.8492600	-0.4241700	1.3299600	0.6072500	-0.4684500	0.8503100	0.6544500	-0.0519100	0.8663100	0.6625900	0.0654800	1.1333200	0.2984400	0.1110300	0.9206700	-0.2001600	0.1188700	0.8499400	0.6538100	-0.1742900	1.1285900	0.2982700	-0.2762300	0.8908000	-0.1677400	-0.2782300	1.0949800	-0.2180000	-0.3644200	1.0361000	-0.2241900	-0.3954300	0.8306800	-0.2286500	-0.2515100	1.0948900	-0.2337800	0.2081300	1.0370900	-0.2360000	0.2371500	0.9025900	-0.2343900	0.0921900
217	3.6000000	1.2001400	1.1831500	-0.0691800	1.1955700	1.1924800	0.1197000	1.1426300	1.0050700	0.3593800	1.3675900	0.7888800	0.3842500	1.1938200	1.1766500	-0.2506900	1.1496000	0.8985700	-0.4110900	1.2734100	0.6402000	-0.4649500	0.8837000	0.6915300	-0.0455800	0.8949300	0.6880900	0.0662700	1.1256000	0.3092200	0.1076600	0.9207900	-0.1970900	0.1180600	0.8756300	0.6925000	-0.1625200	1.1209600	0.3051000	-0.2738900	0.8991800	-0.1640500	-0.2818100	1.0964600	-0.2177400	-0.3643000	1.0368700	-0.2296700	-0.3951700	0.8307600	-0.2285500	-0.2519100	1.0938400	-0.2340400	0.2076200	1.0368200	-0.2333500	0.2360900	0.9015600	-0.2295800	0.0981800
218	3.6166667	1.1844100	1.2273500	-0.0684400	1.1754100	1.2392700	0.1309100	1.1124300	1.0444300	0.3697800	1.3098800	0.8157000	0.3857200	1.1847100	1.2139700	-0.2545200	1.1106500	0.9430100	-0.4090400	1.2453100	0.6812900	-0.4648600	0.9101800	0.7233700	-0.0436000	0.9287100	0.7303900	0.0722200	1.1252300	0.3181800	0.1067700	0.9277300	-0.1876000	0.1141000	0.8922200	0.7207000	-0.1636500	1.0975100	0.3365100	-0.2617400	0.8975900	-0.1651700	-0.2832000	1.0950500	-0.2209900	-0.3649000	1.0360200	-0.2275100	-0.3959100	0.8127300	-0.2269900	-0.2606600	1.0937400	-0.2342000	0.2011700	1.0445700	-0.2275700	0.2314900	0.9065400	-0.2219400	0.0935800
219	3.6333333	1.1700300	1.2742200	-0.0611000	1.1745100	1.2917300	0.1316200	1.0688100	1.0904000	0.3566300	1.2457400	0.8526700	0.3899100	1.1833300	1.2639100	-0.2543000	1.0869100	1.0027700	-0.4135800	1.1789000	0.7222800	-0.4660000	0.9413300	0.7519000	-0.0599700	0.9604200	0.7604200	0.0621500	1.1170200	0.3332300	0.1040900	0.9313500	-0.1814700	0.1156100	0.9308900	0.7553400	-0.1764600	1.0819500	0.3363000	-0.2549900	0.8981400	-0.1607400	-0.2827700	1.1030200	-0.2117400	-0.3611200	1.0360700	-0.2237600	-0.3894500	0.8035800	-0.2187800	-0.2728100	1.0851600	-0.2376100	0.2050600	1.0368300	-0.2330800	0.2363000	0.9096000	-0.2198200	0.0940600
